<?xml version="1.0" encoding="UTF-8"?><svg id="Layer_2" xmlns="http://www.w3.org/2000/svg" viewBox="0 0 173.07 204.82"><defs><style>.cls-1{fill:#fff;}.cls-2{fill:#7d7d7d;}.cls-3{fill:#7e7e7e;}.cls-4{fill:#818181;}.cls-5{fill:#848484;}.cls-6{fill:#8a8a8a;}.cls-7{fill:#34e164;}.cls-8{fill:#717171;}.cls-9{fill:#6f6f6f;}.cls-10{fill:#6d6d6d;}.cls-11{fill:#6e6e6e;}.cls-12{fill:gray;}.cls-13{fill:#2ccd74;}.cls-14{fill:#838383;}.cls-15{fill:#7b7b7b;}</style></defs><path id="darkgreen" class="cls-13" d="M70,.64c-12.92,3.12-24.99,16.06-28.55,30.86-3.87,16.1,6.15,18.58,5.44,37.16-.97,25.31-28.91,37.68-35.44,45.47-6.4,7.65-8.07,17.51-9.61,28.53-.34,2.4,1.19,21.48,8.35,27.95,7.54,6.82,19.64,8.12,22.49,7.35,4.63-1.26,9.79-3.45,26.58-15.89,6.74-4.99,13.41-16.03,18.44-16.38,8.87-.62,15.84,5.5,16.77,6.34,8.25,7.47,4.83,14.62,13.59,29,3.94,6.46,7.49,12.29,13.59,14.02,10.62,3.01,22.25-8.29,26.73-12.66,24.13-23.47,29.66-62.25,20.51-91.08-2.56-8.05-5.28-16.23-12.81-20.39-9.83-5.43-17.58,1.66-36.25-1.81-9.03-1.68-17.5-3.26-22.66-9.97-6.35-8.26-.41-14.84-5.44-36.25C87.39,4.29,81.06,1.37,79.06,.64c-.85-.31-3.79-1.27-9.06,0Z"/><path id="lightgreen" class="cls-7" d="M130.21,33.37c-14.54-9.44-14.17-16.83-29.21-22.87-11.42-4.59-17.86-2.82-19.53-2.31-8.54,2.64-13.08,10.05-15.15,13.41-7.65,12.47-2.17,19.02-8.98,27.63-2.48,3.14-9.22,5.97-22.61,11.49-18.64,7.69-22.04,7.83-26.68,12.79-1.78,1.9-9.43,10.6-7.83,20.91,2.25,14.48,21.07,21.2,22.6,21.72,14.21,4.86,21.04-2.03,35.24,4.86,3.79,1.84,10.42,5.05,11.68,10.96,1.13,5.28-2.87,8.77-9.14,19.17-7.64,12.67-11.45,19.01-10.84,25.75,1.23,13.39,18.03,21.59,21.6,23.34,12.62,6.16,24.44,4.64,29.11,3.75,6.53-1.25,17.4-3.34,22.72-12.4,4.86-8.28,2.75-18.4,2.12-20.98-1.88-7.69-5.46-9.08-5.06-14.87,.37-5.46,4.03-11.32,9.22-14,7.16-3.71,11.6,1.52,22.21-.84,2.25-.5,10.81-2.4,15.97-9.46,6.71-9.17,5.69-24.3-1.62-31.77-6.53-6.67-14.25-3.31-20.03-11.24-2.51-3.44-5.25-9.82-2.87-14.31,3.04-5.71,11.52-2.96,16.99-9.66,2.59-3.18,4.4-8.35,3.27-12.73-2.37-9.26-15.81-7.1-33.17-18.36Z"/><g id="logo"><path class="cls-1" d="M35.3,149.37v-2.87h1.98v-2.2h2.12v-2.16h2.16v-2.05l2.16-.11v-2.12h2.18v-2.16h2.37v-4.32h2.06l.12-2.16h2.15v-2.16h2.14l-.18-2.06q2.18-.15,2.37-1.95c0-.07,.09-.13,.13-.19,2.12-.22,2.14-.23,1.83-1.79-.45-.1-.89-.27-1.34-.28-3.1-.04-6.21-.04-9.31-.06l-.27-2.19c-2.08-.01-4.15-.03-6.23-.04l-.31-4.65h2.28v-4.27h2.2v-2.2h2.35v-2.05l2.16-.11v-2.12h2.12v-4.24l2.2-.1v-2.37h2.06l.11-2.16h2.09v-4.05c.15-.05,.29-.14,.44-.16q1.67-.16,1.82-1.88c0-.07,.08-.13,.12-.19,2.22-.34,2.31-.44,1.73-1.86-.37-.07-.74-.21-1.11-.21-1.7-.03-3.4-.02-5.1-.03l-.07-2.29v-4.33l2.22-.1v-2.13h2.05l.11-2.17h2.12v-2.31l2.17-.1v-4.32h2.17v-2.12h2.2v-4.32h2.26l.11-2.17h2.16v-2.17h2.12v-4.33h2.17v-2.12h2.16v-4.56h2.13v-2.16h2.17v-2.05l2.16-.12v-4.28h2.06l.11-2.12h2.19v-4.25h4.64v2.14h2.24v4.21l2.17,.12v2.11h2.12v4.32h2.21v2.17h2.12v2.17h2.16v4.45l2.17,.11v2.13h2.12v4.32h2.21v2.16h2.27v2.16h2.25v4.21l2.17,.11v2.13h2.06l.12,2.17h2.16v4.56h2.13v2.17h2.17v2.05l2.03,.09v4.51c-.07-.01-.14,0-.21,.03-1.3-.02-2.6-.06-3.9-.04-.76,.02-1.51,.15-2.26,.23-.02,.36-.06,.71-.05,1.07,.04,.86-.11,1.83,.25,2.54,.2,.39,1.27,.33,1.95,.47v4.14h2.18v2.05l2.16,.12v2.4h2.16v4.2l2.16,.1v2.17h2.16v2.12h2.28v4.34h2.27v2.05l2.21,.11-.32,4.53c-2.07,.01-4.15,.03-6.22,.04l-.28,2.2c-2.47,.01-4.95,.01-7.42,.05-.39,0-.78,.2-1.17,.3-.56,1.98,.98,1.67,2.03,1.74q.21,2.14,2.19,2.08l.15,2.22h2.11v4.21l2.17,.11v2.12h2.29v2.19h2.27v4.29h2.06l.11,2.16h2.16v2.16h2.12v2.06l1.84,.11v2.51l-1.79,.39q-.29,2.02-2.42,2.02c-.63,0-1.25,0-1.88,0l-.34,1.97c-1.91-.01-3.81-.03-5.72-.02-.23,0-.46,.17-.7,.26l-.06,1.92c-2.62,0-5.24-.02-7.86-.02-.24,0-.48,.16-.72,.24l-.06,1.88c-3.18,.01-6.37,.01-9.55,.05-.4,0-.8,.16-1.21,.24l-.24,1.93c-5.49,0-10.98-.02-16.48-.02-.25,0-.49,.15-.74,.22l-.27,1.96h-17.21l-.47-1.97c-.25-.07-.5-.21-.76-.21-5.42,0-10.84,0-16.25,.02l-.25-1.7c-.36-.16-.72-.46-1.08-.47-3.22-.05-6.45-.05-9.67-.06l-.23-1.9c-.29-.08-.58-.22-.88-.22-2.51,0-5.02,0-7.53,.02l-.06-1.68c-.27-.17-.54-.48-.82-.49-1.87-.03-3.73,0-5.6,.01l-.34-1.97c-.73,0-1.48,0-2.22,0q-1.77,0-1.98-1.79c-.02-.15-.11-.29-.18-.48l-1.76,.16Zm84.53-61.26h-5.96l-.35,1.78,2.39,.25-.2,1.97h2.47v4.36h2.2v2.4h2.12v4.32h2.16v2.05l2.16,.11v2.12h2.12v4.32h2.2v2.16h2.05l.11,2.04h4.01v-6.19c-2.5,1.08-2.03-.81-2.23-2.16-2.62,1.26-1.8-1.07-2.2-1.98h-1.8l-.26-.54v-4.04c-2.82,1.36-1.81-1.08-2.19-1.78l-2.02-.28c-.03-.05-.06-.11-.08-.17,0-.76,.02-1.51,.02-2.27q0-1.95-1.87-2.12c-.07,0-.13-.08-.19-.13q-.23-1.8-2.2-2.13l-.12-1.73-2.1-.27c-.06-.02-.11-.05-.17-.07l-.08-2.02Zm-14.98-32.67l-.12-.4v-3.81h-2.02l-.2-2.01-2-.28c-.03-.05-.05-.11-.07-.16,0-.75,.02-1.51,.02-2.26q0-1.96-1.87-2.12c-.07,0-.13-.08-.25-.15l-.1-1.74c-.76-.04-1.69,.16-1.98-.18-.35-.42-.17-1.29-.21-1.93h-4.15v3.77l2.3,.28v4.13h2.2v2.29l2.15,.11v2.18l1.95-.27,.17,.22v4.34h2.22v2.2l1.95-.3,.16,.3v4.25h2.2v2.15h2.05l.1,2.19,2.03-.24,.1,.41v4.12h2.18v2.39h2.05l.1,2.17c.76-.07,1.45-.13,2.14-.19l.17,.17v4.3h2.11v2.18l2.03-.17c.74,.11,1.77,.59,2.03-.41,.27-1.06,.06-2.26,.06-3.3l-2.12-.26-.23-.18,.24-3.87c-.9-.14-1.72-.03-2.02-.37-.34-.38-.2-1.18-.26-1.76l-2.06-.3-.21-.21v-2.15h-1.97s-.09-.04-.13-.06v-3.84c-.91-.45-2.3,.4-2.16-1.26,.08-.98-.22-1.4-1.25-1.11-.22,.06-.47,0-.71,0l-.22-.28q.01-1.84-1.83-1.89s-.08,0-.12-.01l-.23-.27v-4.13h-2.07l-.18-2.01-1.99-.27Zm23.73,67.79c-.73-.09-1.45-.25-2.18-.26-2.02-.04-4.04-.01-6.29-.01l.46,1.95,2.07,.09-.19,4.3h2.23v2.17h2.17v2.05l2.16,.1v4.29h2.06l.1,2.17h2.13v4.21l2.17,.11v2.12h2.12v2.32h6.29v-2.06l.21-2.06h-2.16l-.19-.18-.09-1.89h-1.88l-.2-.28v-3.84c-.91-.45-2.3,.4-2.16-1.26,.08-.98-.22-1.4-1.25-1.11-.22,.06-.47,0-.71,0l-.23-.28q.02-1.83-1.83-1.89s-.08,0-.12-.01l-.23-.27v-4.08h-2.04l-.22-2.05-1.99-.27-.12-.41-.1-3.66Z"/><path class="cls-12" d="M152.61,149.06v4.11l-1.99,.17-.13,2.06h-6.37l-.15,2.25h-8.53l-.14,2.14h-6.41l-.2,2.27h-12.92q-.64,1.92-2.87,1.92h-37.84q-2.23,0-2.87-1.92h-12.93l-.19-2.27h-6.42l-.14-2.22h-8.64v-2.17h-4.24l-.13-2.21h-4.2v-3.83l1.76-.16c.07,.19,.16,.33,.18,.48q.22,1.79,1.98,1.79c.74,0,1.48,0,2.22,0,.13,.75,.24,1.36,.34,1.97,.53,.08,1.06,.2,1.6,.23,1.6,.1,3.21,.16,4.82,.24,.02,.56,.04,1.12,.05,1.68,.3,.08,.6,.23,.9,.23,2.5,0,5.01-.01,7.51-.03,.08,.63,.15,1.26,.23,1.9,.45,.1,.9,.28,1.35,.28,2.59,.03,5.18,0,7.77,.02,.55,0,1.09,.14,1.64,.22,.08,.57,.17,1.13,.25,1.7,.3,.08,.6,.22,.9,.22,5.37,0,10.74-.01,16.11-.02,.16,.66,.32,1.31,.47,1.97,.38,.07,.76,.21,1.14,.21,4.97,.01,9.94,.01,14.92,0,.38,0,.76-.14,1.14-.21,.09-.65,.18-1.3,.27-1.96,5.4,0,10.8,.02,16.19,.01,.34,0,.68-.14,1.02-.22,.08-.64,.16-1.29,.24-1.93,3.14,0,6.28,.02,9.42,0,.45,0,.9-.18,1.34-.28l.06-1.88c2.49,0,4.97,.02,7.46,0,.38,0,.75-.15,1.13-.23l.06-1.92c1.14,0,2.28,.03,3.41,0,1-.04,2-.15,3-.23l.34-1.97c.62,0,1.25,0,1.88,0q2.13,0,2.42-2.02l1.79-.39Z"/><path class="cls-6" d="M72.18,164.22v-2.16q.65,1.92,2.88,1.92h37.84q2.23,0,2.87-1.92v2.16h-43.59Z"/><path class="cls-12" d="M54.57,124.99h-1.88l-.17-2.17h-8.54l-.13-2.14-2.06-.12v-1.86c2.06-.05,4.12-.11,6.18-.16,.09,.73,.18,1.46,.27,2.19,.36,.12,.72,.34,1.08,.35,3.19,.02,6.38,0,9.57-.01,.31,1.55,.29,1.57-1.83,1.79-.05,.06-.12,.12-.13,.19q-.19,1.79-2.37,1.95Z"/><path class="cls-12" d="M146.17,118.7c.02,1.11,.03,2.22,.04,3.33,0,.19-.03,.39-.06,.73h-10.81v2.15q-1.98,.06-2.19-2.08c-1.05-.07-2.59,.24-2.03-1.74,2.42,0,4.85,.02,7.27-.01,.44,0,.87-.22,1.31-.34l.28-2.2,6.18,.16Z"/><path class="cls-12" d="M94.2,44.43l-2.3-.28v-3.77h4.15c.04,.65-.14,1.52,.21,1.93,.29,.34,1.22,.14,1.98,.18l.1,1.74c.12,.07,.18,.15,.25,.15q1.87,.15,1.87,2.12c0,.75-.01,1.51-.02,2.26h-2.07l-.12-2.13-2.06-.11-.1-2.1h-1.9Z"/><path class="cls-12" d="M59.01,90.18h-1.97c-.04-.76-.08-1.38-.11-2.01-.06-.05-.12-.13-.18-.14q-1.96-.22-1.96-2.25c0-.67,0-1.34,0-2.12,.74-.04,1.41-.08,2.07-.11,.02,.76,.05,1.53,.07,2.29,.33,.09,.66,.26,.99,.27,1.74,.02,3.48,0,5.22-.02,.58,1.42,.49,1.52-1.73,1.86-.04,.06-.11,.13-.12,.19q-.15,1.72-1.82,1.88c-.15,.01-.29,.1-.44,.16Z"/><path class="cls-12" d="M126.55,98.84h-2.05l-.12-2.12-2.06-.11-.11-2.05-2.14-.14v-4.22l2.1,.27,.12,1.73q1.97,.33,2.2,2.13c.06,.04,.12,.12,.19,.12q1.87,.17,1.87,2.12c0,.76-.01,1.51-.02,2.27Z"/><path class="cls-12" d="M133.17,85.89c0,1.1-.02,2.21,.02,3.31,.03,.71-.2,.99-.94,.97-1.1-.04-2.21,0-3.31,.01-.68-.14-1.75-.08-1.95-.47-.36-.71-.21-1.68-.25-2.54-.02-.35,.03-.71,.05-1.07,2.05-.06,4.11-.13,6.16-.19,.07-.03,.14-.04,.21-.03Z"/><path class="cls-12" d="M137.33,114.12h-1.88l-.15-2.13-2.01-.13-.18-2.07-2-.11c0-1.38,0-2.71,0-4.04,.55,0,1.09,0,1.8,0,.4,.91-.42,3.24,2.2,1.98,.2,1.34-.26,3.24,2.23,2.16v4.33Z"/><path class="cls-12" d="M128.68,126.89l-2,.32-.14-2.21c-1.32,0-2.62,0-3.91,0-.69-.03-1.38-.06-2.07-.09q.02-1.64,1.62-1.64c2.13,0,4.26-.02,6.4-.03l.1,3.66Z"/><path class="cls-4" d="M133.04,133.7h-1.97l-.14-2.13-2.13-.18c0-1.41,0-2.75,0-4.09,.6,.08,1.2,.16,1.99,.27l.22,2.05h2.04v4.08Z"/><path class="cls-4" d="M104.85,59.33c0-1.3,0-2.59,0-3.89l1.99,.27,.18,2.01h2.07c0,1.4,0,2.76,0,4.13-.62,0-1.25,0-1.98,0l-.13-2.22c-.68,0-1.33,0-1.98,0l-.16-.3Z"/><path class="cls-4" d="M130.84,105.12l-1.98,.3-.15-2.15-2.09-.18c0-1.4,0-2.74,0-4.08,.6,.08,1.2,.17,2.02,.28,.39,.7-.62,3.15,2.19,1.78v4.04Z"/><path class="cls-12" d="M104.73,55.03l-1.99,.31-.15-2.25c-.66,0-1.28,0-1.91,0l-.17-.22c0-1.31,0-2.63,0-3.94,.61,.09,1.21,.17,2,.28l.2,2.01h2.02v3.81Z"/><path class="cls-12" d="M122.03,79.22h-1.87l-.13-2.17c-.66,0-1.27,0-1.89,0l-.17-.17c-.01-1.32-.03-2.64-.04-3.95,.66,.1,1.32,.19,2.06,.3,.07,.58-.07,1.38,.26,1.76,.3,.34,1.12,.24,2.02,.37l-.24,3.87Z"/><path class="cls-12" d="M111.39,67.98l.1-3.69c.24,0,.49,.07,.71,0,1.02-.3,1.33,.13,1.25,1.11-.14,1.66,1.25,.81,2.16,1.26,0,1.19,0,2.51,0,3.84h-1.94l-.14-2.12h-2.02l-.1-.41Z"/><path class="cls-12" d="M139.55,142.37h-1.96l-.11-2.07-2.05-.13v-4.02c.24,0,.49,.07,.71,0,1.02-.29,1.33,.12,1.25,1.11-.14,1.66,1.25,.81,2.16,1.26v3.84Z"/><path class="cls-12" d="M119.91,90.13h-3.99c-.73-.07-1.46-.14-2.39-.24,.12-.64,.24-1.21,.35-1.79,1.99,0,3.97,0,5.96,0l.08,2.02Z"/><path class="cls-4" d="M122.29,83.37l-.03-3.96,2.12,.26c0,1.04,.21,2.23-.06,3.3-.26,1-1.29,.52-2.03,.41Z"/><path class="cls-12" d="M143.87,146.78h-1.96v-2.06c.66,0,1.31,0,2.17,0l-.21,2.06Z"/><path class="cls-12" d="M117.71,72.71h-1.97c0-.76,0-1.45,0-2.15h1.97v2.15Z"/><path class="cls-10" d="M120.06,159.92c-.34,.08-.68,.22-1.02,.22-5.4,0-10.8,0-16.19-.01,.25-.08,.49-.22,.74-.22,5.49,0,10.98,0,16.48,.02Z"/><path class="cls-9" d="M102.58,162.09c-.38,.07-.76,.21-1.14,.21-4.97,.01-9.94,.01-14.92,0-.38,0-.76-.14-1.14-.21,5.74,0,11.47,0,17.21,0Z"/><path class="cls-10" d="M84.9,160.12c-5.37,.01-10.74,.02-16.11,.02-.3,0-.6-.14-.9-.22,5.42,0,10.84-.02,16.25-.02,.25,0,.5,.14,.76,.21Z"/><path class="cls-5" d="M135.21,135.88c-.12,0-.23,0-.35,0q-1.82,0-1.59-1.91s.08,.01,.12,.01q1.84,.06,1.83,1.89Z"/><path class="cls-14" d="M111.27,64.02c-.08,0-.16,.01-.23,.01q-1.94,.02-1.71-1.91s.08,.01,.12,.01q1.84,.05,1.83,1.89Z"/><path class="cls-12" d="M141.72,144.54h-1.97v-1.89h1.88l.09,1.89Z"/><path class="cls-10" d="M67.64,158.22c-.55-.08-1.09-.21-1.64-.22-2.59-.02-5.18,0-7.77-.02-.45,0-.9-.19-1.35-.28,3.22,.01,6.45,0,9.67,.06,.36,0,.72,.31,1.08,.47Z"/><path class="cls-10" d="M131.07,157.7c-.45,.1-.9,.28-1.34,.28-3.14,.02-6.28,0-9.42,0,.4-.09,.8-.24,1.21-.24,3.18-.03,6.37-.03,9.55-.05Z"/><path class="cls-3" d="M58.89,121.07c-3.19,0-6.38,.03-9.57,.01-.36,0-.72-.22-1.08-.35,3.1,.01,6.21,.02,9.31,.06,.45,0,.89,.18,1.34,.28Z"/><path class="cls-15" d="M128.58,123.22c-2.13,.01-4.26,.02-6.4,.03q-1.6,0-1.62,1.64c-.13-.57-.27-1.14-.46-1.95,2.25,0,4.27-.02,6.29,.01,.73,.01,1.46,.17,2.18,.26Z"/><path class="cls-3" d="M139.71,120.74c-.44,.12-.87,.34-1.31,.34-2.42,.03-4.85,.01-7.27,.01,.39-.11,.78-.3,1.17-.3,2.47-.04,4.95-.04,7.42-.05Z"/><path class="cls-9" d="M139.71,155.6c-.38,.08-.75,.23-1.13,.23-2.49,.01-4.97,0-7.46,0,.24-.08,.48-.24,.72-.24,2.62,0,5.24,0,7.86,.02Z"/><path class="cls-9" d="M56.66,155.8c-2.5,.01-5.01,.03-7.51,.03-.3,0-.6-.15-.9-.23,2.51,0,5.02-.03,7.53-.02,.29,0,.58,.14,.88,.22Z"/><path class="cls-8" d="M48.2,153.91c-1.61-.08-3.21-.14-4.82-.24-.54-.03-1.07-.15-1.6-.23,1.87-.01,3.73-.05,5.6-.01,.28,0,.55,.32,.82,.49Z"/><path class="cls-8" d="M146.18,153.44c-1,.08-2,.2-3,.23-1.14,.04-2.28,0-3.41,0,.23-.09,.46-.26,.7-.26,1.91-.01,3.81,.01,5.72,.02Z"/><path class="cls-2" d="M146.17,118.7l-6.18-.16,6.22-.04c0,.07-.01,.14-.05,.2Z"/><path class="cls-10" d="M132.96,85.91c-2.05,.06-4.11,.13-6.16,.19,.75-.08,1.51-.21,2.26-.23,1.3-.03,2.6,.02,3.9,.04Z"/><path class="cls-10" d="M63.11,86.09c-1.74,.01-3.48,.04-5.22,.02-.33,0-.66-.17-.99-.27,1.7,0,3.4,0,5.1,.03,.37,0,.74,.14,1.11,.21Z"/><path class="cls-2" d="M47.97,118.54c-2.06,.05-4.12,.11-6.18,.16-.03-.06-.05-.13-.05-.2,2.08,.01,4.15,.03,6.23,.04Z"/><path class="cls-11" d="M119.83,88.11c-1.99,0-3.97,0-5.96,0,1.99,0,3.97,0,5.96,0Z"/></g></svg>