<svg xmlns="http://www.w3.org/2000/svg" viewBox="0 0 292.43 220.21"><defs><style>.cls-1{fill:#fff;}</style></defs><g id="Layer_2" data-name="Layer 2"><g id="Layer_1-2" data-name="Layer 1"><path class="cls-1" d="M282.47,100.72V73.91H274V46h-9.19V36.77h-9.19v-18h-8.81v-10H228.47V0H182.89l-.09,9.86H110.13V0H63.4V9.86H45.79v9.67H37V37.15H27.79v9.19H17.45V73.91H8.64v27.58H0v91.15H9v9.57H27.79v9.19h8.42v8.81H91.4V192.64h9.15v10h91.54V191.87h9.19v28.34h55.15V211h8v-9.57h19.15v-9.58h8.81V100.72ZM119.7,137.11h-9.57v9.95H82.55v-18H72.21v-9.57H82.55v-18h26.81v8.89H119.7Zm100.81-8.05H210.17v18H183.36v-8.89H173V111.45h9.58v-10h27.57v18h10.34Z"/></g></g></svg>