<svg xmlns="http://www.w3.org/2000/svg" viewBox="0 0 299.32 299.32"><defs><style>.cls-1{fill:#fff;}</style></defs><g id="Layer_2" data-name="Layer 2"><g id="Layer_1-2" data-name="Layer 1"><path class="cls-1" d="M290.13,46.36V28.17h-9.77V18H271V9.21H252.79V0H46.65V9H28.07v9.86H18.69v9.29H9.4V46.74H0V252.5H9v18.86h9.77v9.1h9.38v9.38H46.65v9.48h206v-9.38h19v-9.2h9.19V271h10V252.4h8.62v-206ZM271.36,224.64H262s-.19,18.76,0,18.76H252.6v9H243v10h-28v8.81H84.28V262h-28v-9.77H46.94v-9H37.17V186.53H28v-74.3h9.57V56.32h9.19V46.94h9.39V37.36h56.3V27.79h74.48v9.76H243.4v9h9.2v9.58h-9.39V46.74h-28v9.58h-9.58V83.7H186.91V74.89H167.77V65.13H130.62v9.76H112.43v9.39H93.28v9.19H84.09v18.76h-9v18.58H65.7v37.72h9.19V187.3h9v18.76h9.58v9h18.38v9.77h18.77s-.39,8.62,0,8.62h37.72v-8.81h27.77v-9.77h10.15v-9.38h9.19v-9h8.61V168.15h9.77V131.38h-9.57V112h-9V93.47h28L243.4,84H253V56.51h8.81V84.28h9.57ZM205.68,92.89v-8.8h9.42v8.8ZM121.81,187.3v-10h-9.58v-9.77H103V131.19h9V120.85h10v-8.42h18.57v-9.58h18.2V112h18.76v9h9.77v10h8.81v37.15h-9.39v9.19H178.3v9.77H168v9.38H131V187.3Z"/></g></g></svg>