<svg xmlns="http://www.w3.org/2000/svg" viewBox="0 0 291.61 322.85"><defs><style>.cls-1{fill:#fff;}</style></defs><g id="Layer_2" data-name="Layer 2"><g id="Layer_1-2" data-name="Layer 1"><polygon class="cls-1" points="219.25 0 219.25 31.79 229.59 31.79 229.59 52.47 250.27 52.47 250.27 61.66 270.95 61.66 270.95 73.15 291.61 73.15 291.61 135.96 250.27 135.96 250.27 124.85 228.82 124.85 228.82 114.13 207.76 114.13 207.76 124.85 218.87 124.85 218.87 240.51 207.76 240.51 207.76 260.04 198.19 260.04 198.19 280.72 188.23 280.72 188.23 292.6 177.51 292.6 177.51 302.17 156.06 302.17 156.06 313.66 124.27 313.66 124.27 322.85 93.63 322.85 93.63 312.51 62.23 312.51 62.23 301.79 51.12 301.79 51.12 291.83 30.44 291.83 30.44 270 20.87 270 20.87 260.04 10.14 260.04 10.14 229.02 0 229.02 0 207.57 10.91 207.57 10.91 166.21 20.48 166.21 20.48 155.11 30.82 155.11 30.82 145.91 41.16 145.91 41.16 135.57 52.27 135.57 52.27 125.23 61.85 125.23 61.85 114.13 124.27 114.13 124.27 176.94 84.06 176.94 84.06 186.51 72.57 186.51 72.57 239.75 83.29 239.75 83.29 250.09 135 250.09 135 238.98 145.8 238.98 145.8 0 219.25 0"/></g></g></svg>