<svg xmlns="http://www.w3.org/2000/svg" viewBox="0 0 292.96 238.12"><defs><style>.cls-1{fill:#fff;}</style></defs><g id="Layer_2" data-name="Layer 2"><g id="Layer_1-2" data-name="Layer 1"><polygon class="cls-1" points="137.21 64.05 100.69 64.05 100.69 54.86 73.25 54.86 73.25 45.8 64.06 45.8 64.06 36.61 45.86 36.61 45.86 27.35 36.74 27.35 36.74 18.29 27.42 18.29 27.42 9.03 9.04 9.03 9.04 27.54 0 27.48 0 45.86 9.1 45.86 9.1 73.31 18.29 73.31 18.29 82.5 9.35 82.5 9.23 73.82 0 73.82 0 91.75 9.29 91.75 9.29 119.1 18.35 119.1 18.35 128.07 27.61 128.07 27.61 155.59 36.61 155.59 36.61 164.97 45.86 164.97 45.86 174.1 54.8 174.1 54.8 183.29 73.25 183.29 73.25 192.48 54.99 192.48 54.99 201.41 0 201.41 0 219.86 18.1 219.86 18.1 229.05 45.8 229.05 45.8 238.12 137.65 238.12 137.65 229.05 164.97 229.05 164.97 219.73 183.35 219.73 183.35 210.78 192.35 210.78 192.35 201.35 201.4 201.35 201.4 192.21 210.45 192.21 210.45 183.11 219.78 183.11 219.78 174.02 228.83 174.02 228.83 164.78 237.98 164.78 237.98 146.39 247.22 146.39 247.22 128.25 256.45 128.25 256.45 100.77 265.6 100.77 265.6 54.96 274.79 54.96 274.79 45.67 283.84 45.67 283.84 36.67 292.96 36.67 292.96 18.38 283.98 18.38 283.98 27.57 274.65 27.57 274.65 18.48 283.74 18.48 283.74 9.34 292.96 9.34 292.96 0 265.5 0 265.5 9.24 237.98 9.24 237.98 0.19 164.4 0.19 164.4 9.48 155.59 9.48 155.59 18.48 146.48 18.48 146.48 27.48 137.01 27.48 137.21 64.05"/></g></g></svg>